# xmcd
#
# Track frame offsets:
#	182
#	13987
#	25857
#	41755
#	52617
#	66455
#	79867
#	96437
#	109687
#	126822
#	141725
#	155375
#	171087
#	189860
#	203007
#	216587
#	231467
#
# Disc length: 3257 seconds
#
# Revision: 9
# Processed by: cddbd v1.5.2PL0 Copyright (c) Steve Scherf et al.
# Submitted via: EasyCDDAExtractor 15.3.0.1
#
DISCID=f70cb711
DTITLE=Selena - Mis Mejores Canciones - 17 Super Exitos
DYEAR=1993
DGENRE=Latin
TTITLE0=Como La Flor
TTITLE1=Mentiras
TTITLE2=Que Creias
TTITLE3=Besitos
TTITLE4=Yo Fui Aquella
TTITLE5=Despues De Enero
TTITLE6=Vuelve A Mi
TTITLE7=No Quiero Saber
TTITLE8=Costumbres
TTITLE9=Tengo Ganas De Llorar
TTITLE10=Baila Esta Cumbia
TTITLE11=Yo Me Voy
TTITLE12=La Carcacha
TTITLE13=Tu Eres
TTITLE14=Sukiyaki
TTITLE15=Estoy Contigo
TTITLE16=La Tracalera
EXTD=YEAR: 1993
EXTT0=
EXTT1=
EXTT2=
EXTT3=
EXTT4=
EXTT5=
EXTT6=
EXTT7=
EXTT8=
EXTT9=
EXTT10=
EXTT11=
EXTT12=
EXTT13=
EXTT14=
EXTT15=
EXTT16=
PLAYORDER=
